<?xml version="1.0" encoding="UTF-8" standalone="no"?>
<!-- Created with Inkscape (http://www.inkscape.org/) -->

<svg
   xmlns:dc="http://purl.org/dc/elements/1.1/"
   xmlns:cc="http://creativecommons.org/ns#"
   xmlns:rdf="http://www.w3.org/1999/02/22-rdf-syntax-ns#"
   xmlns:svg="http://www.w3.org/2000/svg"
   xmlns="http://www.w3.org/2000/svg"
   xmlns:sodipodi="http://sodipodi.sourceforge.net/DTD/sodipodi-0.dtd"
   xmlns:inkscape="http://www.inkscape.org/namespaces/inkscape"
   version="1.1"
   id="svg178"
   xml:space="preserve"
   width="986.8421"
   height="192.70439"
   viewBox="0 0 986.84207 192.7044"
   sodipodi:docname="Arun Plus Logoa.svg"
   inkscape:version="0.92.4 (5da689c313, 2019-01-14)"><metadata
     id="metadata184"><rdf:RDF><cc:Work
         rdf:about=""><dc:format>image/svg+xml</dc:format><dc:type
           rdf:resource="http://purl.org/dc/dcmitype/StillImage" /><dc:title></dc:title></cc:Work></rdf:RDF></metadata><defs
     id="defs182"><clipPath
       clipPathUnits="userSpaceOnUse"
       id="clipPath194"><path
         d="M 0,1024 H 1280 V 0 H 0 Z"
         id="path192"
         inkscape:connector-curvature="0" /></clipPath><linearGradient
       x1="0"
       y1="0"
       x2="1"
       y2="0"
       gradientUnits="userSpaceOnUse"
       gradientTransform="matrix(-83.912163,0,0,-83.912163,353.75534,477.73889)"
       spreadMethod="pad"
       id="linearGradient232"><stop
         style="stop-opacity:1;stop-color:#f68e26"
         offset="0"
         id="stop224" /><stop
         style="stop-opacity:1;stop-color:#f68e26"
         offset="0.247146"
         id="stop226" /><stop
         style="stop-opacity:1;stop-color:#f68e26"
         offset="0.70769649"
         id="stop228" /><stop
         style="stop-opacity:1;stop-color:#e72027"
         offset="1"
         id="stop230" /></linearGradient><clipPath
       clipPathUnits="userSpaceOnUse"
       id="clipPath242"><path
         d="M 0,1024 H 1280 V 0 H 0 Z"
         id="path240"
         inkscape:connector-curvature="0" /></clipPath><linearGradient
       x1="0"
       y1="0"
       x2="1"
       y2="0"
       gradientUnits="userSpaceOnUse"
       gradientTransform="matrix(138.46204,138.46204,138.46204,-138.46204,901.26416,421.6922)"
       spreadMethod="pad"
       id="linearGradient270"><stop
         style="stop-opacity:1;stop-color:#2339a5"
         offset="0"
         id="stop260" /><stop
         style="stop-opacity:1;stop-color:#2339a5"
         offset="0.00446928"
         id="stop262" /><stop
         style="stop-opacity:1;stop-color:#2339a5"
         offset="0.42307729"
         id="stop264" /><stop
         style="stop-opacity:1;stop-color:#00e8e8"
         offset="0.864256"
         id="stop266" /><stop
         style="stop-opacity:1;stop-color:#00e8e8"
         offset="1"
         id="stop268" /></linearGradient></defs><sodipodi:namedview
     pagecolor="#ffffff"
     bordercolor="#666666"
     borderopacity="1"
     objecttolerance="10"
     gridtolerance="10"
     guidetolerance="10"
     inkscape:pageopacity="0"
     inkscape:pageshadow="2"
     inkscape:window-width="1920"
     inkscape:window-height="991"
     id="namedview180"
     showgrid="false"
     inkscape:zoom="0.58447269"
     inkscape:cx="493.54217"
     inkscape:cy="96.757355"
     inkscape:window-x="-9"
     inkscape:window-y="-9"
     inkscape:window-maximized="1"
     inkscape:current-layer="g186" /><g
     id="g186"
     inkscape:groupmode="layer"
     inkscape:label="Arun Plus Logo"
     transform="matrix(1.3333333,0,0,-1.3333333,-359.79121,778.61371)"><g
       id="g188"><g
         id="g190"
         clip-path="url(#clipPath194)"><g
           id="g196"
           transform="translate(559.2255,439.4322)"><path
             d="M 0,0 H -32.479 L -84.96,45.097 c -4.673,4.875 -6.286,11.209 -4.422,17.375 1.829,6.082 6.74,10.862 13.455,13.096 l 37.605,12.511 v 34.594 h -62.734 V 0 h -24.664 v 125.23 c 0,10.635 9.858,19.298 21.987,19.298 h 57.214 c 18.127,0 32.873,-12.893 32.873,-28.726 V 92.739 c 0,-11.83 -8.508,-22.62 -21.163,-26.838 l -29.347,-9.763 z"
             style="fill:#2339a5;fill-opacity:1;fill-rule:nonzero;stroke:none"
             id="path198"
             inkscape:connector-curvature="0" /></g><g
           id="g200"
           transform="translate(699.3203,583.9603)"><path
             d="m 0,0 v -125.23 c 0,-10.635 -9.87,-19.298 -21.999,-19.298 h -76.488 c -12.129,0 -21.999,8.663 -21.999,19.298 V 0 h 24.664 v -122.673 h 71.146 V 0 Z"
             style="fill:#2339a5;fill-opacity:1;fill-rule:nonzero;stroke:none"
             id="path202"
             inkscape:connector-curvature="0" /></g><g
           id="g204"
           transform="translate(860.4222,583.9603)"><path
             d="m 0,0 v -125.23 c 0,-10.635 -9.87,-19.298 -21.999,-19.298 h -11.698 c -9.44,0 -17.817,5.27 -20.84,13.108 l -45.742,109.565 h -8.664 v -122.673 h -24.663 v 125.23 c 0,10.635 9.87,19.298 21.998,19.298 h 13.384 c 9.44,0 17.816,-5.27 20.84,-13.108 l 45.754,-109.565 h 6.954 V 0 Z"
             style="fill:#2339a5;fill-opacity:1;fill-rule:nonzero;stroke:none"
             id="path206"
             inkscape:connector-curvature="0" /></g><g
           id="g208"
           transform="translate(281.4375,486.8952)"><path
             d="m 0,0 5.019,6.034 c 3.286,3.944 7.11,7.588 11.364,10.827 0.322,0.263 0.621,0.478 0.956,0.729 l 0.31,0.215 c 4.075,2.975 8.556,5.616 13.312,7.827 l 0.777,0.358 12.367,49.22 H 65.901 L 96.73,-47.463 h 25.25 L 89.525,81.722 C 87.434,90.6 78.376,97.065 67.98,97.065 H 42.038 C 31.63,97.065 22.572,90.577 20.481,81.65 Z"
             style="fill:#2339a5;fill-opacity:1;fill-rule:nonzero;stroke:none"
             id="path210"
             inkscape:connector-curvature="0" /></g></g></g><g
       id="g212"><g
         id="g214"><g
           id="g220"><g
             id="g222"><path
               d="m 299.091,499.946 c -29.978,-24.981 -29.246,-60.514 -29.246,-60.514 v 0 h 28.513 v 2.402 c 0.084,12.643 2.915,23.887 8.651,34.39 v 0 c 15.486,28.357 44.93,32.299 46.746,32.527 v 0 l -1.744,6.943 c -2.312,0.241 -4.583,0.352 -6.801,0.352 v 0 c -26.697,10e-4 -46.119,-16.1 -46.119,-16.1"
               style="fill:url(#linearGradient232);stroke:none"
               id="path234"
               inkscape:connector-curvature="0" /></g></g></g></g><g
       id="g236"><g
         id="g238"
         clip-path="url(#clipPath242)"><g
           id="g244"
           transform="translate(960.087,570.0661)"><path
             d="m 0,0 v -47.158 c -5.568,-3.097 -14.369,-8.864 -22.802,-21.152 h -45.501 c -1.132,0 -2.05,0.918 -2.05,2.05 v 16.436 c 0,1.132 0.918,2.05 2.05,2.05 h 47.038 c 0.403,0 0.736,0.326 0.736,0.736 V 0 c 0,1.132 0.918,2.05 2.05,2.05 H -2.05 C -0.918,2.05 0,1.132 0,0"
             style="fill:#01a652;fill-opacity:1;fill-rule:nonzero;stroke:none"
             id="path246"
             inkscape:connector-curvature="0" /></g></g></g><g
       id="g248"><g
         id="g250"><g
           id="g256"><g
             id="g258"><path
               d="m 993.674,523.177 c -20.062,-3.172 -33.785,-14.545 -33.785,-14.545 v 0 c -19.913,-16.591 -25.635,-38.055 -27.27,-49.591 v 0 c -0.723,-5.049 -0.659,-8.192 -0.659,-8.192 v 0 h 27.228 v 2.294 c 0.084,12.073 2.782,22.809 8.263,32.836 v 0 c 12.754,23.354 35.422,29.366 42.524,30.719 v 0 7.01 c -2.049,0.199 -4.063,0.292 -6.034,0.292 v 0 c -3.569,0 -7.002,-0.303 -10.267,-0.823"
               style="fill:url(#linearGradient270);stroke:none"
               id="path272"
               inkscape:connector-curvature="0" /></g></g></g></g></g></svg>